<svg xmlns="http://www.w3.org/2000/svg" width="26" height="50" viewBox="0 0 26 50">
    <g fill="none" fill-rule="evenodd">
        <g>
            <ellipse cx="13.012" cy="42.36" fill="#5E23DC" stroke="#FFF" stroke-width="3" rx="5.186" ry="5.466"/>
            <path fill="#5E23DC" d="M25.196 13.076C25.196 6.065 19.736.38 12.998.38 6.261.38.8 6.065.8 13.076c0 4.323 2.075 8.14 5.245 10.433a48 48 0 0 1 1.464 1.166c4.427 3.887 5.49 6.648 5.49 6.648s1.088-2.83 5.656-6.794a39.02 39.02 0 0 1 1.156-.92c3.249-2.28 5.385-6.147 5.385-10.533"/>
            <path fill="#FFF" d="M22.545 12.958c0 5.488-4.274 9.937-9.547 9.937-5.273 0-9.547-4.45-9.547-9.937 0-5.489 4.274-9.937 9.547-9.937 5.273 0 9.547 4.448 9.547 9.937"/>
        </g>
        <path fill="#5E23DC" d="M18.399 12.452a.53.53 0 0 0-.043-.757l-4.94-4.339a.614.614 0 0 0-.803.01l-4.956 4.56a.527.527 0 0 0-.024.757l.124.13c.206.215.54.24.744.057l.37-.333v4.875c0 .3.242.541.54.541h1.931a.54.54 0 0 0 .54-.54V14h2.464v3.411c-.004.3.209.541.506.541H16.9a.54.54 0 0 0 .539-.541v-4.807l.229.202c.126.111.39.022.59-.2l.14-.155z"/>
    </g>
</svg>
